<svg xmlns="http://www.w3.org/2000/svg" version="1.0" width="1021.000000pt" height="517.000000pt" viewBox="0 0 1021.000000 517.000000" preserveAspectRatio="xMidYMid meet">

<g transform="translate(0.000000,517.000000) scale(0.100000,-0.100000)" fill="#000000" stroke="none">
<path d="M7627 5149 c-149 -35 -262 -148 -287 -287 -17 -94 -1 -153 86 -318 79 -151 99 -215 110 -354 7 -94 -7 -235 -33 -315 -25 -79 -79 -175 -134 -237 -43 -50 -68 -66 -173 -116 -203 -97 -320 -186 -452 -343 l-67 -79 -147 0 c-134 0 -150 -2 -174 -21 l-26 -20 0 -1478 0 -1478 26 -24 c25 -23 31 -24 163 -24 189 0 211 14 211 135 l0 60 118 0 c107 0 121 -2 162 -26 81 -47 224 -103 330 -130 98 -25 123 -27 370 -30 215 -3 261 -2 246 8 -132 90 -232 200 -286 316 -18 37 -35 74 -40 82 -5 11 -32 17 -96 22 -49 4 -118 15 -154 23 -87 21 -230 92 -310 153 -112 84 -227 234 -282 363 -55 131 -58 171 -58 742 0 293 5 562 10 612 30 260 196 512 423 643 66 38 206 82 295 92 112 13 2182 13 2313 0 112 -11 237 -52 316 -105 29 -19 57 -35 63 -35 5 0 0 24 -11 53 -69 176 -214 335 -378 413 -131 63 -141 64 -807 64 -540 0 -602 2 -608 16 -3 9 -6 234 -6 500 0 403 -3 498 -16 561 -58 282 -242 496 -480 558 -63 16 -157 18 -217 4z" fill="#000000"/>
<path d="M5619 3085 c-15 -8 -32 -29 -38 -46 -8 -23 -11 -441 -11 -1456 0 -1208 2 -1429 14 -1458 24 -56 55 -65 220 -65 155 0 187 7 205 47 8 17 11 434 11 1479 l0 1456 -29 29 -29 29 -159 0 c-118 -1 -165 -4 -184 -15z" fill="#000000"/>
<path d="M8113 2846 c-153 -49 -254 -181 -256 -337 -1 -56 4 -77 32 -133 36 -74 94 -136 156 -168 92 -48 91 -48 960 -48 913 0 893 -1 993 67 231 158 208 489 -44 605 l-49 23 -875 2 c-704 2 -883 -1 -917 -11z" fill="#000000"/>
<path d="M166 2185 c-56 -20 -97 -64 -107 -116 -4 -24 -8 -249 -9 -499 0 -453 0 -456 23 -500 27 -53 74 -80 140 -80 55 0 115 27 137 62 12 18 16 72 20 248 l5 225 76 -115 c42 -63 98 -150 125 -193 27 -43 57 -88 66 -100 17 -22 17 -22 32 -2 9 11 61 93 117 181 55 89 114 177 130 195 l28 34 1 -220 c0 -200 2 -223 20 -252 22 -36 58 -58 113 -68 58 -11 139 32 166 89 20 41 21 57 21 516 0 459 -1 475 -21 516 -37 78 -124 110 -201 76 -55 -24 -81 -56 -247 -304 -73 -109 -136 -198 -141 -198 -5 0 -75 98 -156 218 -81 119 -156 228 -168 240 -44 50 -111 68 -170 47z" fill="#000000"/>
<path d="M1855 2188 c-16 -6 -41 -20 -53 -32 -53 -47 -52 -39 -52 -573 0 -476 1 -499 20 -530 59 -97 222 -87 277 17 l23 43 0 476 c0 475 0 477 -22 521 -37 72 -117 104 -193 78z" fill="#000000"/>
<path d="M2558 2190 c-46 -14 -85 -48 -102 -90 -14 -35 -16 -102 -16 -518 0 -434 2 -480 18 -512 54 -108 220 -108 274 0 16 30 18 66 18 259 0 224 0 224 20 206 11 -10 95 -117 188 -239 92 -121 183 -237 203 -257 84 -84 229 -67 278 34 20 42 21 56 21 526 0 517 1 509 -52 558 -12 12 -44 27 -70 33 -43 11 -52 10 -95 -11 -88 -45 -87 -42 -93 -357 l-5 -276 -51 69 c-28 39 -120 167 -204 285 -173 244 -192 267 -237 286 -36 15 -55 16 -95 4z" fill="#000000"/>
<path d="M4058 2190 c-45 -13 -85 -41 -104 -74 -18 -29 -19 -56 -16 -530 3 -549 2 -536 65 -575 48 -30 132 -29 178 2 70 47 69 36 69 580 0 541 0 537 -64 576 -38 23 -92 32 -128 21z" fill="#000000"/>
<path d="M8050 1889 c-108 -21 -209 -98 -257 -196 -29 -61 -41 -158 -24 -218 29 -108 135 -222 234 -249 43 -12 195 -15 892 -19 462 -2 871 0 909 4 91 11 164 47 226 109 135 134 142 328 17 467 -46 51 -117 88 -191 102 -73 13 -1738 13 -1806 0z" fill="#000000"/>
<path d="M8153 926 c-121 -38 -207 -139 -233 -273 -29 -147 57 -301 208 -371 l57 -27 613 -3 c685 -3 687 -3 788 64 227 151 210 465 -31 592 l-50 27 -655 2 c-519 2 -664 -1 -697 -11z" fill="#000000"/>
</g>
</svg>